<?xml version="1.0" standalone="no"?>
<!DOCTYPE svg PUBLIC "-//W3C//DTD SVG 20010904//EN"
 "http://www.w3.org/TR/2001/REC-SVG-20010904/DTD/svg10.dtd">
<svg version="1.0" xmlns="http://www.w3.org/2000/svg"
 width="431.000000pt" height="406.000000pt" viewBox="0 0 431.000000 406.000000"
 preserveAspectRatio="xMidYMid meet">

<g transform="translate(0.000000,406.000000) scale(0.100000,-0.100000)"
fill="#117F74" stroke="none">
<path d="M2160 3813 l0 -170 123 -114 c154 -142 646 -610 967 -920 135 -130
330 -318 435 -417 l190 -182 162 0 c89 0 164 4 167 8 6 9 -141 155 -524 522
-409 392 -451 432 -555 531 -55 52 -149 143 -210 200 -111 107 -677 641 -727
688 l-28 25 0 -171z"/>
<path d="M2045 3912 c-33 -32 -197 -188 -365 -347 -484 -459 -488 -463 -855
-815 -193 -184 -439 -419 -547 -523 -109 -104 -198 -196 -198 -203 0 -11 31
-14 168 -14 l167 1 230 222 c127 122 354 339 505 481 151 143 313 297 360 341
47 45 130 124 185 176 216 204 273 258 353 334 l82 79 0 163 c0 124 -3 163
-12 163 -7 0 -40 -26 -73 -58z"/>
<path d="M2065 2821 c-98 -46 -144 -118 -130 -207 6 -42 17 -55 29 -35 4 5 25
12 49 16 53 9 144 49 176 78 l25 22 -18 -29 c-18 -29 -18 -30 3 -47 28 -23 94
-34 120 -19 15 8 21 8 21 0 0 -6 5 -8 10 -5 27 17 -9 155 -51 197 -15 15 -38
28 -51 28 -13 0 -32 7 -42 15 -30 22 -74 18 -141 -14z"/>
<path d="M2919 2735 c-100 -37 -148 -75 -168 -134 -14 -43 -14 -79 1 -121 l11
-33 19 22 c10 13 18 32 18 42 0 21 34 27 46 8 3 -6 26 -20 51 -31 l44 -19 40
35 c21 20 43 36 49 36 5 0 25 -13 43 -30 19 -16 37 -27 41 -23 3 3 6 -3 6 -15
0 -11 -4 -24 -10 -27 -5 -3 -10 -1 -10 5 0 14 -60 70 -75 70 -6 0 -24 -13 -40
-30 -36 -37 -72 -39 -125 -5 l-40 25 -14 -34 c-10 -23 -22 -35 -38 -38 -40 -5
-36 -80 6 -99 12 -6 28 -25 34 -42 12 -34 103 -97 139 -97 32 0 130 68 142 99
7 15 25 38 42 50 22 16 29 30 29 54 0 18 -5 38 -11 44 -8 8 -8 22 0 49 17 59
13 91 -14 138 -59 101 -128 134 -216 101z"/>
<path d="M1280 2680 c-49 -9 -71 -23 -113 -69 -47 -52 -64 -113 -78 -280 -15
-190 -8 -214 74 -241 20 -6 37 -16 37 -21 0 -17 22 -9 51 20 17 17 29 40 29
55 0 14 5 26 11 26 7 0 -8 22 -33 48 -25 26 -51 66 -58 87 -7 22 -19 46 -27
53 -24 25 -15 39 27 40 58 3 124 38 174 93 42 47 43 48 54 25 5 -13 36 -50 67
-84 51 -56 54 -62 37 -71 -11 -6 -22 -24 -25 -41 -6 -29 -96 -129 -142 -157
-17 -11 -16 -11 8 -3 42 15 44 14 56 -35 8 -33 19 -49 36 -57 14 -6 25 -16 25
-22 0 -24 -100 -146 -125 -152 -35 -9 -83 30 -132 106 l-38 60 -55 -6 c-94
-10 -161 -55 -205 -135 -16 -29 -46 -112 -66 -184 l-38 -130 82 -77 c45 -43
85 -78 88 -78 4 0 24 53 45 118 21 64 42 122 46 127 5 6 8 -66 7 -170 l-2
-180 69 -63 c88 -81 163 -142 175 -142 6 0 23 29 39 65 42 94 79 88 80 -13 0
-24 6 -35 23 -42 12 -5 143 -61 292 -124 148 -63 270 -114 272 -112 1 1 3 139
3 306 l1 304 -48 25 c-79 40 -524 221 -544 221 -17 0 -19 -11 -21 -112 -4
-145 -22 -151 -26 -9 -2 84 0 107 13 122 10 10 15 29 13 46 -3 28 -2 28 45 26
46 -3 48 -2 54 27 3 17 8 30 12 30 15 0 201 -73 265 -104 95 -46 156 -91 248
-183 l77 -76 83 79 c128 123 201 167 402 243 60 22 110 41 112 41 1 0 4 -14 8
-31 5 -28 9 -31 34 -26 15 3 34 8 44 12 13 5 17 -2 23 -34 4 -23 11 -43 16
-47 13 -7 12 -224 -1 -224 -5 0 -10 26 -11 58 -1 31 -4 83 -8 114 l-6 58 -235
-95 c-129 -52 -264 -109 -300 -128 -64 -33 -65 -34 -72 -83 -9 -69 -10 -552 0
-558 4 -2 63 21 132 51 69 31 202 87 295 124 l170 69 5 50 c10 91 40 90 74 -1
33 -90 27 -91 162 30 140 126 133 112 135 325 1 180 8 184 58 33 24 -70 46
-127 49 -127 4 1 45 36 91 78 l83 77 -22 109 c-45 223 -65 256 -195 317 -44
21 -82 34 -85 30 -6 -9 -174 -122 -208 -140 -20 -11 -31 -8 -80 20 -31 17 -86
51 -121 76 l-64 44 -73 -35 c-40 -20 -76 -36 -81 -36 -4 1 -17 15 -28 33 -22
35 -80 71 -139 88 -33 9 -40 8 -51 -8 -17 -24 -173 -177 -185 -181 -13 -5
-200 178 -200 194 0 18 4 19 -81 -17 -67 -28 -130 -76 -140 -108 -3 -9 -24 -6
-79 13 -41 13 -92 28 -113 31 -51 10 -54 20 -9 33 21 7 49 23 62 37 21 22 23
33 21 112 -2 105 -16 199 -38 256 -30 76 -80 145 -120 165 -44 22 -122 32
-173 22z m204 -1211 c45 -29 48 -33 32 -44 -16 -13 -16 -14 5 -17 27 -4 38
-28 13 -28 -16 0 -15 -2 4 -16 29 -20 28 -37 0 -29 -21 6 -22 5 -6 -8 10 -8
15 -17 11 -20 -15 -15 -62 -5 -106 22 -63 41 -82 109 -44 159 15 19 38 14 91
-19z m1416 11 c27 -27 26 -80 -2 -115 -38 -48 -148 -86 -148 -50 0 8 6 15 13
16 6 1 1 5 -13 9 l-25 8 23 7 c21 7 21 8 5 20 -17 12 -16 14 12 25 25 10 27
13 12 19 -17 6 -16 8 5 28 23 21 76 52 91 53 4 0 16 -9 27 -20z"/>
<path d="M2105 2604 c-27 -13 -66 -27 -85 -30 -19 -4 -38 -12 -42 -18 -10 -15
-9 -100 2 -156 10 -52 57 -99 124 -125 37 -14 45 -14 78 0 95 39 138 115 138
243 0 64 0 64 -25 58 -33 -8 -100 10 -122 33 -17 18 -20 17 -68 -5z"/>
<path d="M2336 2523 c-3 -4 -1 -12 4 -18 7 -9 7 -22 0 -40 -13 -34 -3 -47 16
-21 18 25 18 72 0 79 -8 3 -17 3 -20 0z"/>
<path d="M1920 2486 c0 -18 7 -39 15 -46 21 -17 29 -6 15 20 -6 11 -8 30 -5
40 4 14 2 20 -9 20 -11 0 -16 -10 -16 -34z"/>
<path d="M2041 2238 c-6 -18 -21 -43 -33 -55 l-22 -24 79 -73 80 -73 45 37
c25 21 60 54 79 74 31 32 33 37 19 48 -9 7 -26 32 -38 55 l-22 42 -44 -21
c-43 -22 -44 -22 -81 -3 -21 11 -41 21 -44 23 -4 1 -12 -12 -18 -30z"/>
<path d="M2840 2199 c0 -31 -18 -57 -50 -74 -17 -9 -30 -19 -30 -23 1 -13 161
-105 183 -104 20 0 168 79 189 100 5 5 -8 19 -29 33 -21 14 -41 37 -46 54 -5
17 -11 31 -12 33 -2 2 -20 -8 -40 -23 -47 -31 -59 -31 -114 0 -52 30 -51 30
-51 4z"/>
<path d="M82 1956 c2 -11 929 -904 1328 -1280 36 -33 134 -126 219 -206 85
-80 229 -216 320 -302 91 -87 170 -158 174 -158 5 0 7 77 5 171 l-3 171 -36
32 c-20 17 -148 136 -285 265 -137 129 -350 329 -474 445 -124 116 -284 267
-355 336 -72 69 -175 168 -230 220 -55 52 -152 145 -216 207 l-116 113 -167 0
c-140 0 -167 -2 -164 -14z"/>
<path d="M3805 1903 c-38 -37 -136 -130 -216 -208 -80 -77 -174 -167 -210
-199 -35 -33 -109 -103 -164 -156 -55 -52 -172 -163 -260 -245 -88 -83 -238
-224 -335 -315 -96 -91 -239 -225 -317 -298 l-142 -134 -3 -166 c-2 -92 -2
-169 -1 -171 4 -7 48 31 209 184 93 89 250 237 349 331 879 833 1491 1418
1493 1430 3 12 -26 14 -165 14 l-168 0 -70 -67z"/>
<path d="M2602 1780 c-121 -46 -263 -119 -312 -161 l-35 -30 50 30 c68 40 225
114 311 145 67 25 121 55 99 55 -5 0 -56 -17 -113 -39z"/>
<path d="M1570 1807 c0 -2 26 -15 58 -28 158 -63 271 -114 320 -145 79 -51 75
-35 -5 19 -92 62 -373 178 -373 154z"/>
<path d="M2092 1191 c3 -332 3 -332 61 -317 l27 6 0 308 0 307 -45 0 -45 0 2
-304z"/>
</g>
</svg>
